<svg width="60" height="62" viewBox="0 0 60 62" fill="none" xmlns="http://www.w3.org/2000/svg">
<path d="M19.9121 26.5961C19.9047 27.2506 19.9643 27.7827 20.0746 28.1738C20.2011 28.5649 20.3595 28.9915 20.5824 29.4544C20.6624 29.5972 20.6934 29.7391 20.6926 29.8632C20.691 30.0406 20.5906 30.2162 20.3775 30.3909L19.3422 31.1217C19.1944 31.2254 19.0475 31.2768 18.9168 31.2751C18.7543 31.2733 18.5919 31.1829 18.431 31.0215C18.2057 30.7527 18.013 30.4672 17.853 30.1825C17.6929 29.8792 17.5338 29.5404 17.359 29.1316C16.0707 30.7439 14.4647 31.5385 12.5411 31.5145C11.1727 31.4977 10.0852 31.0596 9.29488 30.1994C8.50536 29.34 8.11021 28.2022 8.12491 26.7859C8.14124 25.281 8.64253 24.066 9.64677 23.157C10.6502 22.2489 11.9753 21.8055 13.6539 21.8259C14.2083 21.8329 14.7782 21.8933 15.3799 21.9891C15.9825 22.0857 16.6005 22.2347 17.2504 22.4023L17.2643 21.1102C17.2782 19.7649 17.0275 18.823 16.5279 18.2679C16.0119 17.7127 15.135 17.436 13.8801 17.421C13.3094 17.4139 12.7224 17.4768 12.1174 17.6285C11.5124 17.781 10.9237 17.9681 10.3506 18.2085C10.0885 18.3291 9.89253 18.3982 9.77823 18.4319C9.66392 18.4656 9.58146 18.4825 9.51696 18.4816C9.28835 18.4789 9.1765 18.3007 9.18059 17.9282L9.18956 17.0609C9.192 16.778 9.22711 16.5661 9.30958 16.4428C9.39286 16.3204 9.54063 16.198 9.77005 16.0774C10.344 15.7652 11.0315 15.5081 11.8324 15.3059C12.6334 15.0859 13.4817 14.9902 14.3781 15.0008C16.3172 15.0256 17.7305 15.5214 18.6327 16.488C19.5194 17.4556 19.9602 18.9126 19.9398 20.8601L19.8794 26.5953L19.9121 26.5961ZM13.2669 29.2043C13.8042 29.2114 14.3594 29.1121 14.9489 28.9063C15.5375 28.7015 16.0633 28.3184 16.5091 27.7934C16.7736 27.4599 16.9728 27.0901 17.0749 26.6671C17.1769 26.2432 17.248 25.7306 17.2545 25.1284L17.2619 24.3853C16.7908 24.2558 16.287 24.1432 15.7661 24.066C15.2452 23.988 14.7398 23.9463 14.2353 23.9401C13.1428 23.9268 12.3419 24.1467 11.799 24.6185C11.256 25.0894 10.9882 25.759 10.9792 26.644C10.9702 27.4759 11.1597 28.0984 11.5622 28.5286C11.9492 28.9755 12.5166 29.1955 13.2669 29.2043ZM26.3335 31.2795C26.0404 31.2751 25.8453 31.2201 25.7163 31.0942C25.5873 30.9869 25.4754 30.7376 25.3815 30.3998L21.6952 16.668C21.6013 16.3124 21.5548 16.0818 21.5564 15.9577C21.5589 15.6748 21.6911 15.5169 21.9524 15.5205L23.5494 15.54C23.8588 15.5444 24.0703 15.5994 24.183 15.7253C24.312 15.8326 24.4075 16.0819 24.5014 16.4197L27.1165 28.1729L29.7822 16.4853C29.8672 16.1324 29.9676 15.9036 30.099 15.7989C30.2305 15.6943 30.4599 15.626 30.753 15.6295L32.0569 15.6464C32.3663 15.65 32.5778 15.7058 32.7068 15.8309C32.8358 15.9391 32.9476 16.1883 33.0089 16.5253L35.459 28.4186L38.404 16.5926C38.5053 16.2397 38.622 16.0109 38.7371 15.9062C38.8686 15.8016 39.0809 15.7333 39.3748 15.7369L40.8901 15.7564C41.1506 15.759 41.2959 15.9027 41.2926 16.2033C41.2918 16.292 41.2747 16.3807 41.2575 16.4862C41.2396 16.5927 41.2061 16.7337 41.1383 16.9279L37.0667 30.563C36.9646 30.9159 36.8487 31.1447 36.7172 31.2494C36.5858 31.3531 36.3727 31.4214 36.0959 31.4179L34.694 31.401C34.3846 31.3966 34.1731 31.3416 34.0441 31.2157C33.9151 31.0906 33.8033 30.8583 33.742 30.5035L31.336 19.0545L28.7061 30.4237C28.6212 30.7767 28.5208 31.0055 28.3894 31.1279C28.2571 31.2503 28.0285 31.2999 27.7354 31.2964L26.3335 31.2795ZM47.2716 32.0174C46.4241 32.0067 45.5774 31.8906 44.765 31.668C43.9518 31.4454 43.3191 31.2068 42.8978 30.9363C42.639 30.774 42.4618 30.5949 42.3981 30.4344C42.3345 30.2738 42.3034 30.0965 42.305 29.9377L42.3148 29.0349C42.3189 28.6633 42.4512 28.4878 42.6953 28.4904C42.7933 28.4922 42.8913 28.5108 42.9884 28.5472C43.0856 28.5835 43.2317 28.6562 43.3942 28.729C43.9453 29.0021 44.5462 29.222 45.1798 29.371C45.8305 29.5209 46.4657 29.5999 47.1173 29.6078C48.1444 29.6203 48.9445 29.4358 49.5029 29.0536C50.0614 28.6705 50.3602 28.1082 50.3684 27.3819C50.3733 26.8861 50.2312 26.4773 49.9414 26.1376C49.6515 25.7971 49.1004 25.4894 48.3052 25.1967L45.9497 24.3702C44.7642 23.9481 43.8906 23.3352 43.3615 22.5327C42.8317 21.7469 42.5639 20.8761 42.5737 19.9555C42.5818 19.2115 42.7353 18.5588 43.0341 17.9956C43.3338 17.4325 43.7298 16.9421 44.2229 16.559C44.716 16.1581 45.2737 15.8637 45.9277 15.6597C46.5817 15.4548 47.2675 15.375 47.9843 15.3839C48.3427 15.3883 48.7175 15.4105 49.0759 15.4682C49.4499 15.5258 49.7912 15.6012 50.1332 15.6766C50.4582 15.7688 50.7668 15.861 51.0591 15.971C51.3514 16.081 51.5784 16.19 51.74 16.2982C51.967 16.4428 52.1287 16.5864 52.2242 16.747C52.3205 16.8897 52.3679 17.0849 52.3646 17.3332L52.3565 18.165C52.3524 18.5366 52.2201 18.7299 51.9752 18.7264C51.8445 18.7246 51.6339 18.6519 51.3579 18.5065C50.4345 18.0347 49.3935 17.7916 48.2366 17.7775C47.3075 17.7659 46.5727 17.9158 46.0632 18.2457C45.5545 18.5756 45.2884 19.0864 45.281 19.8119C45.2753 20.3076 45.4345 20.7342 45.7562 21.0747C46.0787 21.4153 46.6788 21.7593 47.5394 22.0706L49.845 22.8963C51.0142 23.3184 51.856 23.8948 52.3532 24.6274C52.8504 25.359 53.0864 26.1944 53.0766 27.1149C53.0684 27.8759 52.9149 28.5649 52.6316 29.1626C52.332 29.7613 51.9352 30.2871 51.4249 30.7057C50.9154 31.142 50.3088 31.4533 49.6058 31.675C48.8694 31.9136 48.1027 32.028 47.2716 32.0174Z" fill="#4B4B4B"/>
<path d="M50.2615 40.6594C44.8541 44.8941 37.0398 47.081 30.3416 46.9977C20.9539 46.8806 12.5346 43.0051 6.21197 36.659C5.7123 36.157 6.17604 35.4892 6.77451 35.8865C13.6393 40.3278 22.1345 43.0708 30.9523 43.1807C36.901 43.2552 43.4506 41.9906 49.4932 39.3044C50.3946 38.8725 51.1489 39.9615 50.2615 40.6594ZM52.5231 37.9254C51.8487 36.9605 47.9974 37.4083 46.251 37.6167C45.7285 37.6815 45.6526 37.1848 46.1294 36.8186C49.218 34.5199 54.2466 35.256 54.8247 36.0417C55.4035 36.8461 54.596 42.3063 51.7001 44.8905C51.2559 45.2923 50.8338 45.075 51.0355 44.5465C51.7058 42.8021 53.1975 38.8716 52.5231 37.9254Z" fill="#4B4B4B"/>
</svg>
