<svg width="60" height="62" viewBox="0 0 60 62" fill="none" xmlns="http://www.w3.org/2000/svg">
<path fill-rule="evenodd" clip-rule="evenodd" d="M37.7958 49.1896V55.4383C38.7233 55.9635 39.8573 56.3506 41.1178 56.6128C42.3776 56.8751 43.7519 57 45.127 57C46.5013 57 47.7618 56.8627 49.0216 56.5759C50.2813 56.2882 51.3128 55.8131 52.229 55.2007C53.1565 54.5382 53.9477 53.7014 54.4058 52.5761C54.8639 51.4517 55.2188 50.2023 55.2188 48.5772C55.2188 47.4405 55.0583 46.4533 54.7494 45.5779C54.4397 44.7033 53.9929 43.9536 53.3743 43.3289C52.7904 42.6664 52.1145 42.0787 51.3128 41.579C50.5104 41.0792 49.5942 40.5548 48.5635 40.0797C47.807 39.7419 47.1884 39.4172 46.5013 39.0925C45.906 38.7678 45.3907 38.4423 45.0124 38.1176C44.5882 37.7798 44.268 37.4305 44.039 37.068C43.8092 36.6932 43.6946 36.2805 43.6946 35.8186C43.6946 35.3936 43.7971 35.0057 44.0043 34.6563C44.2115 34.3062 44.4971 34.0185 44.8633 33.7686C45.2302 33.5187 45.6883 33.3313 46.2383 33.194C46.7763 33.0568 47.3723 32.9943 48.0707 32.9943C48.5522 32.9943 49.0562 33.0329 49.5603 33.111C50.087 33.1899 50.6257 33.3116 51.1637 33.4735C51.7024 33.6363 52.229 33.836 52.7678 34.0859C53.2718 34.3358 53.7412 34.6235 54.1421 34.9481V29.0752C53.2718 28.7127 52.3089 28.4373 51.2782 28.263C50.2475 28.088 49.1014 28 47.7271 28C46.3528 28 45.0923 28.1628 43.8325 28.4751C42.572 28.7875 41.5413 29.2872 40.6251 29.9744C39.6968 30.6492 39.0209 31.4745 38.4483 32.5989C37.9104 33.6486 37.6466 34.8487 37.6466 36.348C37.6466 38.2229 38.1394 39.8471 39.1355 41.0965C40.121 42.4717 41.6558 43.4712 43.6035 44.4707C44.3939 44.8208 45.0923 45.171 45.7795 45.508C46.4674 45.8458 47.04 46.196 47.4981 46.5577C47.9909 46.9201 48.3804 47.3205 48.6433 47.7454C48.9297 48.1704 49.0788 48.6701 49.0788 49.2447C49.0788 49.645 48.9892 50.0198 48.8151 50.3691C48.6411 50.7193 48.3683 51.0193 48.0021 51.2692C47.6352 51.5191 47.1884 51.7188 46.6279 51.8692C46.0891 52.0065 45.4818 52.0813 44.6802 52.0813C43.4204 52.0813 42.1599 51.8438 41.0146 51.3695C39.7541 50.8944 38.6088 50.1817 37.5781 49.2447L37.7958 49.1896ZM28.1734 33.8187H35.5046V28.6954H15V33.8187H22.3311V56.6876H28.1734V33.8187Z" fill="#4B4B4B"/>
</svg>
