<svg width="60" height="62" viewBox="0 0 60 62" fill="none" xmlns="http://www.w3.org/2000/svg">
<path d="M0 8C0 3.58172 3.58172 0 8 0H52C56.4183 0 60 3.58172 60 8V54C60 58.4183 56.4183 62 52 62H8C3.58172 62 0 58.4183 0 54V8Z" fill="#F2F4F6"/>
<path fill-rule="evenodd" clip-rule="evenodd" d="M41.105 48.1896V54.4383C42.0044 54.9635 43.104 55.3506 44.3264 55.6128C45.548 55.8751 46.8806 56 48.214 56C49.5467 56 50.769 55.8627 51.9906 55.5759C53.2122 55.2882 54.2125 54.8131 55.1009 54.2007C56.0003 53.5382 56.7675 52.7014 57.2117 51.5761C57.6559 50.4517 58 49.2023 58 47.5772C58 46.4405 57.8444 45.4533 57.5448 44.5779C57.2445 43.7033 56.8113 42.9536 56.2114 42.3289C55.6452 41.6664 54.9898 41.0787 54.2125 40.579C53.4343 40.0792 52.5459 39.5548 51.5464 39.0797C50.8129 38.7419 50.213 38.4172 49.5467 38.0925C48.9695 37.7678 48.4697 37.4423 48.103 37.1176C47.6916 36.7798 47.3811 36.4305 47.159 36.068C46.9362 35.6932 46.8251 35.2805 46.8251 34.8186C46.8251 34.3936 46.9245 34.0057 47.1254 33.6563C47.3263 33.3062 47.6032 33.0185 47.9583 32.7686C48.3141 32.5187 48.7583 32.3313 49.2917 32.194C49.8133 32.0568 50.3913 31.9943 51.0686 31.9943C51.5354 31.9943 52.0242 32.0329 52.513 32.111C53.0237 32.1899 53.5461 32.3116 54.0678 32.4735C54.5902 32.6363 55.1009 32.836 55.6233 33.0859C56.1121 33.3358 56.5673 33.6235 56.9559 33.9481V28.0752C56.1121 27.7127 55.1783 27.4373 54.1789 27.263C53.1794 27.088 52.0681 27 50.7354 27C49.4027 27 48.1804 27.1628 46.9588 27.4751C45.7365 27.7875 44.737 28.2872 43.8485 28.9744C42.9484 29.6492 42.293 30.4745 41.7378 31.5989C41.2161 32.6486 40.9604 33.8487 40.9604 35.348C40.9604 37.2229 41.4382 38.8471 42.4041 40.0965C43.3598 41.4717 44.848 42.4712 46.7367 43.4707C47.5031 43.8208 48.1804 44.171 48.8468 44.508C49.5138 44.8458 50.0691 45.196 50.5133 45.5577C50.9911 45.9201 51.3689 46.3205 51.6238 46.7454C51.9015 47.1704 52.0462 47.6701 52.0462 48.2447C52.0462 48.645 51.9592 49.0198 51.7904 49.3691C51.6217 49.7193 51.3572 50.0193 51.0021 50.2692C50.6463 50.5191 50.213 50.7188 49.6694 50.8692C49.147 51.0065 48.5581 51.0813 47.7808 51.0813C46.5592 51.0813 45.3368 50.8438 44.2263 50.3695C43.0039 49.8944 41.8934 49.1817 40.8939 48.2447L41.105 48.1896ZM31.7742 32.8187H38.8832V27.6954H19V32.8187H26.109V55.6876H31.7742V32.8187Z" fill="#4B4B4B"/>
</svg>
